<svg width="23" height="22" viewBox="0 0 23 22" fill="none" xmlns="http://www.w3.org/2000/svg">
<path d="M0.695189 16.5217C0.576402 16.5481 0.475194 16.6185 0.413572 16.7197C0.351981 16.8209 0.33437 16.9441 0.360771 17.0585C0.523601 17.7098 0.778817 18.3302 1.12639 18.9022C1.18801 19.0078 1.28922 19.0782 1.40361 19.1046C1.51804 19.131 1.64125 19.1134 1.73803 19.0474C2.01083 18.8758 2.54766 18.9506 2.97007 19.3774C3.39688 19.8043 3.47168 20.3367 3.30006 20.6095C3.23408 20.7107 3.21647 20.8295 3.24287 20.9439C3.26927 21.0628 3.34408 21.1596 3.44528 21.2211C4.01731 21.5688 4.63774 21.824 5.28893 21.9868C5.40336 22.0132 5.52654 21.9956 5.62775 21.934C5.72896 21.8724 5.79934 21.7712 5.82574 21.6568C5.89615 21.34 6.32738 21.0144 6.93017 21.0144C7.53299 21.0144 7.96422 21.34 8.03463 21.6568C8.05661 21.7712 8.13145 21.8724 8.23262 21.934C8.29861 21.978 8.38224 22 8.46144 22C8.49663 22 8.53185 21.9956 8.56704 21.9868C9.21827 21.824 9.83867 21.5688 10.4151 21.2211C10.5163 21.1596 10.5867 21.0628 10.6175 20.9439C10.6439 20.8295 10.6219 20.7107 10.5603 20.6095C10.3843 20.3367 10.4591 19.8043 10.8859 19.3774C11.3127 18.9506 11.8495 18.8758 12.118 19.0474C12.2192 19.1134 12.3423 19.131 12.4568 19.1046C12.5712 19.0782 12.6724 19.0078 12.734 18.9022C13.0772 18.3302 13.3368 17.7098 13.4996 17.0585C13.526 16.9441 13.5084 16.8209 13.4468 16.7197C13.3808 16.6185 13.2796 16.5481 13.1652 16.5217C12.8528 16.4513 12.5272 16.0201 12.5272 15.4172C12.5272 14.8188 12.8528 14.3831 13.1652 14.3171C13.2796 14.2907 13.3808 14.2203 13.4468 14.1192C13.5084 14.0179 13.526 13.8947 13.4996 13.7803C13.3368 13.1291 13.0772 12.5086 12.734 11.9322C12.6724 11.831 12.5712 11.7606 12.4568 11.7342C12.3423 11.7078 12.2192 11.7254 12.118 11.7914C11.8451 11.963 11.3127 11.8882 10.8859 11.4614C10.4591 11.0346 10.3843 10.5021 10.5603 10.2293C10.6219 10.1281 10.6439 10.0093 10.6175 9.89047C10.5867 9.77607 10.5163 9.67486 10.4151 9.61766C9.83867 9.27005 9.21827 9.0104 8.56704 8.85202C8.45265 8.82119 8.32944 8.8432 8.23262 8.90479C8.13145 8.96642 8.05661 9.06763 8.03463 9.18202C7.96422 9.49887 7.53299 9.82009 6.93017 9.82009C6.32738 9.82009 5.89615 9.49887 5.82574 9.18202C5.79934 9.06763 5.72896 8.96642 5.62775 8.90479C5.52654 8.8432 5.40336 8.82119 5.28893 8.85202C4.63774 9.0104 4.01731 9.27005 3.44528 9.61766C3.34408 9.67486 3.26927 9.77607 3.24287 9.89047C3.21647 10.0093 3.23408 10.1281 3.30006 10.2293C3.47168 10.5021 3.39688 11.0346 2.97007 11.4614C2.54766 11.8882 2.01083 11.963 1.73803 11.7914C1.64125 11.7254 1.51804 11.7034 1.40361 11.7342C1.28922 11.7606 1.18801 11.831 1.12639 11.9322C0.778817 12.5086 0.523601 13.1291 0.360771 13.7803C0.33437 13.8947 0.351981 14.0179 0.413572 14.1192C0.475194 14.2203 0.576402 14.2907 0.695189 14.3171C1.00763 14.3831 1.33323 14.8188 1.33323 15.4172C1.33323 16.0201 1.00763 16.4513 0.695189 16.5217ZM6.93017 13.0939C8.21065 13.0939 9.25346 14.1367 9.25346 15.4172C9.25346 16.7021 8.21065 17.7449 6.93017 17.7449C5.64536 17.7449 4.60252 16.7021 4.60252 15.4172C4.60252 14.1367 5.64536 13.0939 6.93017 13.0939Z" fill="black"/>
<path d="M12.0256 6.12386C11.9111 6.15023 11.81 6.22067 11.7483 6.32185C11.6868 6.42306 11.6647 6.54628 11.6955 6.66068C11.8275 7.18874 12.0344 7.69033 12.3116 8.15677C12.3732 8.25798 12.4744 8.33279 12.5888 8.35919C12.7076 8.38559 12.8264 8.36358 12.9276 8.30199C13.1124 8.18317 13.4908 8.24037 13.7988 8.54839C14.1068 8.85642 14.1684 9.23483 14.0496 9.41967C13.9836 9.52085 13.9616 9.64407 13.988 9.75846C14.0188 9.87289 14.0892 9.97407 14.1904 10.0357C14.6568 10.3129 15.1585 10.5241 15.6865 10.6561C15.7217 10.6649 15.7569 10.6649 15.7921 10.6649C15.8757 10.6649 15.9549 10.6429 16.0253 10.6033C16.1265 10.5373 16.1969 10.4361 16.2233 10.3217C16.2717 10.1061 16.5797 9.88168 17.0153 9.88168C17.4509 9.88168 17.7589 10.1061 17.8073 10.3217C17.8337 10.4361 17.9041 10.5373 18.0054 10.6033C18.1065 10.6649 18.2254 10.6825 18.3441 10.6561C18.8722 10.5241 19.3738 10.3129 19.8402 10.0357C19.9414 9.97407 20.0118 9.87289 20.0382 9.75846C20.069 9.64407 20.047 9.52085 19.981 9.41967C19.8622 9.23483 19.9238 8.85642 20.2318 8.54839C20.5398 8.24037 20.9138 8.18317 21.103 8.30199C21.2042 8.36358 21.3231 8.38559 21.4419 8.35919C21.5562 8.33279 21.653 8.25798 21.7147 8.15677C21.9963 7.69473 22.2031 7.18874 22.3351 6.66068C22.3659 6.54628 22.3439 6.42306 22.2823 6.32185C22.2207 6.22067 22.1195 6.15023 22.0051 6.12386C21.7895 6.07545 21.5651 5.76742 21.5651 5.33181C21.5651 4.89617 21.7895 4.58815 22.0051 4.53977C22.1195 4.51337 22.2207 4.44292 22.2823 4.34174C22.3439 4.24053 22.3659 4.12171 22.3351 4.00292C22.2031 3.47489 21.9963 2.97327 21.7147 2.51122C21.653 2.40565 21.5562 2.3352 21.4419 2.3088C21.3231 2.28243 21.2042 2.30001 21.103 2.36603C20.9183 2.48485 20.5398 2.42323 20.2318 2.1152C19.9238 1.80718 19.8622 1.43316 19.981 1.24396C20.047 1.14714 20.069 1.02395 20.0382 0.909527C20.0118 0.790737 19.9414 0.693921 19.8402 0.632328C19.3738 0.350702 18.8722 0.143886 18.3441 0.0118787C18.2254 -0.0145228 18.1065 0.00308858 18.0054 0.0646816C17.9041 0.126275 17.8337 0.227516 17.8073 0.341912C17.7589 0.561914 17.4509 0.781946 17.0153 0.781946C16.5797 0.781946 16.2717 0.561914 16.2233 0.341912C16.1969 0.227516 16.1265 0.126275 16.0253 0.0646816C15.9241 0.00308858 15.8009 -0.0145227 15.6865 0.0118787C15.1585 0.143886 14.6568 0.350702 14.1904 0.632328C14.0892 0.693921 14.0188 0.790737 13.988 0.909527C13.9616 1.02395 13.9836 1.14714 14.0496 1.24396C14.1684 1.43316 14.1068 1.80718 13.7988 2.1152C13.4908 2.42323 13.1124 2.48485 12.9276 2.36603C12.8264 2.30001 12.7076 2.28243 12.5888 2.3088C12.4744 2.3352 12.3732 2.41001 12.3116 2.51122C12.0344 2.97327 11.8275 3.47932 11.6955 4.00292C11.6647 4.12171 11.6868 4.24053 11.7483 4.34174C11.81 4.44292 11.9111 4.51337 12.0256 4.53977C12.2412 4.58815 12.4656 4.89617 12.4656 5.33181C12.4656 5.76742 12.2412 6.07545 12.0256 6.12386ZM17.0153 3.56728C17.9878 3.56728 18.7798 4.35936 18.7798 5.33181C18.7798 6.30427 17.9878 7.09632 17.0153 7.09632C16.0429 7.09632 15.2509 6.30427 15.2509 5.33181C15.2509 4.35936 16.0429 3.56728 17.0153 3.56728Z" fill="black"/>
</svg>
