<svg width="16" height="22" viewBox="0 0 16 22" fill="none" xmlns="http://www.w3.org/2000/svg">
<path d="M6.65116 0C5.70964 0 5.11297 0.593366 5.11628 1.53488H3.5814C3.43967 1.53488 3.32558 1.64898 3.32558 1.7907V4.34884C3.32558 4.49056 3.43967 4.60465 3.5814 4.60465H11.7674C11.9092 4.60465 12.0233 4.49056 12.0233 4.34884V1.7907C12.0233 1.64898 11.9092 1.53488 11.7674 1.53488H10.2326C10.2293 0.593366 9.6392 0 8.69767 0H6.65116ZM1.53488 3.06977C0.684561 3.06977 0 3.75433 0 4.60465V20.4651C0 21.3154 0.684561 22 1.53488 22H13.814C14.6643 22 15.3488 21.3154 15.3488 20.4651V4.60465C15.3488 3.75433 14.6643 3.06977 13.814 3.06977H12.5349V4.34884C12.5349 4.76515 12.1838 5.11628 11.7674 5.11628H3.5814C3.16508 5.11628 2.81395 4.76515 2.81395 4.34884V3.06977H1.53488ZM3.06977 7.16279C3.49361 7.16279 3.83721 7.50639 3.83721 7.93023C3.83721 8.35408 3.49361 8.69767 3.06977 8.69767C2.64592 8.69767 2.30233 8.35408 2.30233 7.93023C2.30233 7.50639 2.64592 7.16279 3.06977 7.16279ZM6.13953 7.4186H13.0465C13.3291 7.4186 13.5581 7.64766 13.5581 7.93023C13.5581 8.2128 13.3291 8.44186 13.0465 8.44186H6.13953C5.85697 8.44186 5.62791 8.2128 5.62791 7.93023C5.62791 7.64766 5.85697 7.4186 6.13953 7.4186ZM3.06977 10.7442C3.49361 10.7442 3.83721 11.0878 3.83721 11.5116C3.83721 11.9355 3.49361 12.2791 3.06977 12.2791C2.64592 12.2791 2.30233 11.9355 2.30233 11.5116C2.30233 11.0878 2.64592 10.7442 3.06977 10.7442ZM6.13953 11H13.0465C13.3291 11 13.5581 11.2291 13.5581 11.5116C13.5581 11.7942 13.3291 12.0233 13.0465 12.0233H6.13953C5.85697 12.0233 5.62791 11.7942 5.62791 11.5116C5.62791 11.2291 5.85697 11 6.13953 11ZM3.06977 14.3256C3.49361 14.3256 3.83721 14.6692 3.83721 15.093C3.83721 15.5169 3.49361 15.8605 3.06977 15.8605C2.64592 15.8605 2.30233 15.5169 2.30233 15.093C2.30233 14.6692 2.64592 14.3256 3.06977 14.3256ZM6.13953 14.5814H13.0465C13.3291 14.5814 13.5581 14.8105 13.5581 15.093C13.5581 15.3756 13.3291 15.6047 13.0465 15.6047H6.13953C5.85697 15.6047 5.62791 15.3756 5.62791 15.093C5.62791 14.8105 5.85697 14.5814 6.13953 14.5814ZM3.06977 17.907C3.49361 17.907 3.83721 18.2506 3.83721 18.6744C3.83721 19.0983 3.49361 19.4419 3.06977 19.4419C2.64592 19.4419 2.30233 19.0983 2.30233 18.6744C2.30233 18.2506 2.64592 17.907 3.06977 17.907ZM6.13953 18.1628H13.0465C13.3291 18.1628 13.5581 18.3918 13.5581 18.6744C13.5581 18.957 13.3291 19.186 13.0465 19.186H6.13953C5.85697 19.186 5.62791 18.957 5.62791 18.6744C5.62791 18.3918 5.85697 18.1628 6.13953 18.1628Z" fill="#4878F3"/>
</svg>
