<svg width="52" height="52" viewBox="0 0 52 52" fill="none" xmlns="http://www.w3.org/2000/svg">
<g filter="url(#filter0_d_1_749)">
<rect x="6" y="6" width="32" height="32" rx="5" fill="white"/>
</g>
<path d="M25.5078 17.355H11.0463C10.9089 17.355 10.7729 17.3817 10.6459 17.4335C10.519 17.4854 10.4036 17.5613 10.3065 17.6571C10.2093 17.7528 10.1322 17.8665 10.0797 17.9917C10.0271 18.1168 10 18.2509 10 18.3863V27.0041C10 27.2776 10.1102 27.54 10.3065 27.7334C10.5027 27.9268 10.7688 28.0355 11.0463 28.0355H11.6802L12.4739 32L16.4092 28.0355H25.5078C25.7853 28.0355 26.0515 27.9268 26.2477 27.7334C26.4439 27.54 26.5541 27.2776 26.5541 27.0041V18.3863C26.5541 18.2509 26.5271 18.1168 26.4745 17.9917C26.4219 17.8665 26.3448 17.7529 26.2477 17.6571C26.1505 17.5613 26.0352 17.4854 25.9082 17.4335C25.7813 17.3817 25.6452 17.355 25.5078 17.355ZM13.9718 23.7604C13.7581 23.7604 13.5491 23.6979 13.3714 23.5809C13.1937 23.4638 13.0552 23.2975 12.9734 23.1029C12.8916 22.9082 12.8702 22.694 12.9119 22.4874C12.9536 22.2808 13.0566 22.091 13.2077 21.942C13.3588 21.7931 13.5514 21.6916 13.761 21.6505C13.9706 21.6094 14.1879 21.6305 14.3853 21.7111C14.5828 21.7918 14.7516 21.9283 14.8703 22.1034C14.989 22.2786 15.0524 22.4846 15.0524 22.6952C15.0524 22.9777 14.9386 23.2487 14.7359 23.4484C14.5333 23.6482 14.2584 23.7604 13.9718 23.7604ZM18.2771 23.7604C18.0633 23.7604 17.8544 23.6979 17.6767 23.5809C17.499 23.4638 17.3605 23.2975 17.2787 23.1029C17.1969 22.9082 17.1755 22.694 17.2172 22.4874C17.2589 22.2808 17.3618 22.091 17.5129 21.942C17.6641 21.7931 17.8566 21.6916 18.0662 21.6505C18.2759 21.6094 18.4931 21.6305 18.6906 21.7111C18.8881 21.7918 19.0568 21.9283 19.1756 22.1034C19.2943 22.2786 19.3577 22.4846 19.3577 22.6952C19.3577 22.9777 19.2438 23.2487 19.0412 23.4484C18.8385 23.6482 18.5637 23.7604 18.2771 23.7604ZM22.5823 23.7604C22.3686 23.7604 22.1597 23.6979 21.982 23.5809C21.8043 23.4638 21.6658 23.2975 21.584 23.1029C21.5022 22.9082 21.4808 22.694 21.5225 22.4874C21.5642 22.2808 21.6671 22.091 21.8182 21.942C21.9694 21.7931 22.1619 21.6916 22.3715 21.6505C22.5811 21.6094 22.7984 21.6305 22.9959 21.7111C23.1933 21.7918 23.3621 21.9283 23.4809 22.1034C23.5996 22.2786 23.663 22.4846 23.663 22.6952C23.663 22.9777 23.5491 23.2487 23.3465 23.4484C23.1438 23.6482 22.8689 23.7604 22.5823 23.7604Z" fill="#C9C9C9"/>
<path d="M32.705 13H18.2435C17.9657 13.0002 17.6994 13.1091 17.5029 13.3027C17.3065 13.4963 17.1961 13.7589 17.1958 14.0327V15.5336H25.5085C26.2757 15.5349 27.011 15.836 27.5532 16.371C28.0954 16.9059 28.4002 17.631 28.4008 18.3871V24.7471L31.2773 27.6449L32.0716 23.6807H32.705C32.8423 23.6808 32.9782 23.6542 33.1051 23.6025C33.2319 23.5508 33.3472 23.4749 33.4442 23.3792C33.5413 23.2835 33.6183 23.1699 33.6707 23.0449C33.7232 22.9199 33.7501 22.7859 33.75 22.6506V14.0327C33.7502 13.8972 33.7233 13.7631 33.6709 13.6379C33.6185 13.5127 33.5415 13.3989 33.4445 13.303C33.3474 13.2071 33.2322 13.131 33.1053 13.079C32.9784 13.027 32.8424 13.0002 32.705 13Z" fill="#C9C9C9"/>
<defs>
<filter id="filter0_d_1_749" x="0" y="0" width="52" height="52" filterUnits="userSpaceOnUse" color-interpolation-filters="sRGB">
<feFlood flood-opacity="0" result="BackgroundImageFix"/>
<feColorMatrix in="SourceAlpha" type="matrix" values="0 0 0 0 0 0 0 0 0 0 0 0 0 0 0 0 0 0 127 0" result="hardAlpha"/>
<feOffset dx="4" dy="4"/>
<feGaussianBlur stdDeviation="5"/>
<feColorMatrix type="matrix" values="0 0 0 0 0 0 0 0 0 0 0 0 0 0 0 0 0 0 0.25 0"/>
<feBlend mode="normal" in2="BackgroundImageFix" result="effect1_dropShadow_1_749"/>
<feBlend mode="normal" in="SourceGraphic" in2="effect1_dropShadow_1_749" result="shape"/>
</filter>
</defs>
</svg>
